<svg width="15" height="11" viewBox="0 0 15 11" fill="none" xmlns="http://www.w3.org/2000/svg">
<path d="M4.02197 10.8181C3.43311 10.8181 2.93257 10.612 2.52036 10.1998C2.10816 9.78757 1.90205 9.28703 1.90205 8.69816H0.48877V6.57824C0.48877 5.80093 0.765537 5.13551 1.31907 4.58198C1.87261 4.02844 2.53803 3.75167 3.31533 3.75167H6.1419V7.28488H8.61514L11.0884 4.21099V2.33839H8.96846V0.92511H11.0884C11.477 0.92511 11.8097 1.06349 12.0865 1.34026C12.3633 1.61703 12.5017 1.94974 12.5017 2.33839V4.70564L9.32178 8.69816H6.1419C6.1419 9.28703 5.93579 9.78757 5.52359 10.1998C5.11138 10.612 4.61084 10.8181 4.02197 10.8181ZM4.02197 9.4048C4.22219 9.4048 4.39002 9.33708 4.52546 9.20164C4.6609 9.0662 4.72862 8.89838 4.72862 8.69816H3.31533C3.31533 8.89838 3.38305 9.0662 3.51849 9.20164C3.65393 9.33708 3.82176 9.4048 4.02197 9.4048ZM2.60869 3.04503V1.63175H6.1419V3.04503H2.60869ZM12.5017 10.8181C11.9128 10.8181 11.4123 10.612 11.0001 10.1998C10.5878 9.78757 10.3817 9.28703 10.3817 8.69816C10.3817 8.10929 10.5878 7.60876 11.0001 7.19655C11.4123 6.78434 11.9128 6.57824 12.5017 6.57824C13.0905 6.57824 13.5911 6.78434 14.0033 7.19655C14.4155 7.60876 14.6216 8.10929 14.6216 8.69816C14.6216 9.28703 14.4155 9.78757 14.0033 10.1998C13.5911 10.612 13.0905 10.8181 12.5017 10.8181ZM12.5017 9.4048C12.7019 9.4048 12.8697 9.33708 13.0051 9.20164C13.1406 9.0662 13.2083 8.89838 13.2083 8.69816C13.2083 8.49795 13.1406 8.33012 13.0051 8.19468C12.8697 8.05924 12.7019 7.99152 12.5017 7.99152C12.3015 7.99152 12.1336 8.05924 11.9982 8.19468C11.8627 8.33012 11.795 8.49795 11.795 8.69816C11.795 8.89838 11.8627 9.0662 11.9982 9.20164C12.1336 9.33708 12.3015 9.4048 12.5017 9.4048ZM1.90205 7.28488H4.72862V5.16496H3.31533C2.92668 5.16496 2.59397 5.30334 2.3172 5.58011C2.04044 5.85688 1.90205 6.18959 1.90205 6.57824V7.28488Z" fill="#1C1B1F"/>
</svg>
